<svg width="36" height="36" viewBox="0 0 36 36" fill="none" xmlns="http://www.w3.org/2000/svg">
<path d="M20.78 20.64C18.6925 22.7576 16.1667 24.3926 13.38 25.43L9.61001 22.43C9.49823 22.353 9.36572 22.3118 9.23001 22.3118C9.09429 22.3118 8.96178 22.353 8.85001 22.43L1.85 26.94C1.58426 27.0998 1.35929 27.3191 1.1929 27.5808C1.0265 27.8424 0.923218 28.1392 0.891212 28.4476C0.859207 28.756 0.899353 29.0677 1.00848 29.3579C1.11761 29.6482 1.29272 29.909 1.52 30.12L4.8 33.36C5.26973 33.8241 5.84706 34.1647 6.48046 34.3514C7.11386 34.5381 7.78364 34.5651 8.43001 34.43C14.8778 33.0983 20.8209 29.9795 25.58 25.43C30.2335 20.8352 33.4537 14.9888 34.85 8.59998C34.9879 7.96362 34.9592 7.30242 34.7664 6.68046C34.5737 6.05849 34.2236 5.49686 33.75 5.04998L30.35 1.76998C30.1396 1.55377 29.883 1.38796 29.5995 1.28496C29.3159 1.18196 29.0127 1.14445 28.7126 1.17523C28.4125 1.20601 28.1232 1.30429 27.8665 1.4627C27.6097 1.62112 27.3921 1.83556 27.23 2.08998L22.57 8.99998C22.4896 9.10849 22.4462 9.23995 22.4462 9.37498C22.4462 9.51002 22.4896 9.64148 22.57 9.74998L25.64 13.44C24.5744 16.1709 22.9143 18.6304 20.78 20.64Z" fill="#FF6C1B"/>
</svg>
