<svg width="34" height="28" viewBox="0 0 34 28" fill="none" xmlns="http://www.w3.org/2000/svg">
<path d="M32.4375 0.9375H1.5625C0.905664 0.9375 0.375 1.46816 0.375 2.125V25.875C0.375 26.5318 0.905664 27.0625 1.5625 27.0625H32.4375C33.0943 27.0625 33.625 26.5318 33.625 25.875V2.125C33.625 1.46816 33.0943 0.9375 32.4375 0.9375ZM29.4391 4.97871L17.7311 14.0891C17.4416 14.3154 17.0371 14.3154 16.7477 14.0891L5.03594 4.97871C4.99179 4.94464 4.95941 4.89761 4.94333 4.84421C4.92726 4.79081 4.92829 4.73371 4.94629 4.68093C4.9643 4.62815 4.99836 4.58233 5.04372 4.54988C5.08908 4.51743 5.14345 4.49999 5.19922 4.5H29.2758C29.3315 4.49999 29.3859 4.51743 29.4313 4.54988C29.4766 4.58233 29.5107 4.62815 29.5287 4.68093C29.5467 4.73371 29.5477 4.79081 29.5317 4.84421C29.5156 4.89761 29.4832 4.94464 29.4391 4.97871Z" fill="#FF6C1B"/>
</svg>
