<svg width="63" height="62" viewBox="0 0 63 62" fill="none" xmlns="http://www.w3.org/2000/svg">
<path d="M60.9199 51.1842L57.4811 55.6649C54.5439 59.5113 50.1971 61.7351 45.6139 61.7351C43.1508 61.7325 40.7227 61.0935 38.5282 59.8708C31.7932 56.0892 25.4749 51.4803 19.6952 46.1332C13.8745 40.8401 8.6256 34.8383 4.04963 28.2444C1.9263 25.1828 0.81823 21.4226 0.90897 17.5813C0.999599 13.7401 2.28306 10.0473 4.54839 7.10979L7.98714 2.62849C9.00778 1.3078 10.53 0.57694 12.1105 0.65011C13.6929 0.722733 15.152 1.60457 16.0503 3.03112L21.3068 11.3069H21.3063C21.8316 12.1348 22.093 13.1287 22.0513 14.1356C22.009 15.1424 21.666 16.1063 21.0743 16.8791L16.8802 22.3444V22.3439C16.2657 23.1417 15.935 24.1543 15.9488 25.1969C15.9625 26.239 16.3194 27.2413 16.9547 28.0188C19.8245 31.4679 22.9059 34.699 26.1766 37.691C29.4402 40.6919 32.8865 43.4469 36.4908 45.9383C37.3012 46.4881 38.2663 46.6992 39.2078 46.5327C40.1496 46.3662 41.0047 45.8335 41.6153 45.0325L45.8108 39.5687C46.404 38.7973 47.212 38.2604 48.1116 38.04C49.0108 37.82 49.9517 37.9289 50.7888 38.3501L59.1576 42.5726C60.5948 43.2983 61.6402 44.7145 61.9856 46.403C62.331 48.0915 61.9367 49.8598 60.9194 51.1852L60.9199 51.1842Z" fill="white"/>
</svg>
