<svg width="273" height="71" viewBox="0 0 273 71" fill="none" xmlns="http://www.w3.org/2000/svg">
<path d="M1.49552 41.1416H15.2182L7.16537 55.215H14.7581V59.0084H0.262939L8.34864 44.935H1.49552V41.1416ZM38.5353 41.1416H43.0053V59.0084H38.5353V57.1199C37.6588 57.9519 36.7767 58.5541 35.8893 58.9263C35.0128 59.2875 34.0597 59.4682 33.0298 59.4682C30.718 59.4682 28.7185 58.576 27.0312 56.7914C25.344 54.996 24.5003 52.7682 24.5003 50.1078C24.5003 47.349 25.3166 45.0882 26.9491 43.3257C28.5815 41.5632 30.5645 40.6818 32.8982 40.6818C33.9719 40.6818 34.9799 40.8843 35.9222 41.2894C36.8645 41.6944 37.7354 42.3021 38.5353 43.1122V41.1416ZM33.8186 44.8201C32.4272 44.8201 31.2712 45.3127 30.351 46.298C29.4306 47.2723 28.9704 48.5259 28.9704 50.0586C28.9704 51.6022 29.4361 52.8722 30.3673 53.8684C31.3096 54.8647 32.4655 55.3628 33.835 55.3628C35.2484 55.3628 36.4207 54.8757 37.352 53.9012C38.2832 52.9159 38.7489 51.6296 38.7489 50.0422C38.7489 48.4875 38.2832 47.2286 37.352 46.2652C36.4207 45.3017 35.2429 44.8201 33.8186 44.8201ZM55.1307 34.2445H59.5843V42.948C60.4609 42.1926 61.3428 41.6288 62.2303 41.2566C63.1177 40.8733 64.0161 40.6818 64.9255 40.6818C66.7004 40.6818 68.1959 41.2948 69.412 42.521C70.4529 43.5829 70.9734 45.1431 70.9734 47.2012V59.0084H66.5525V51.1753C66.5525 49.1061 66.4539 47.7048 66.2567 46.9714C66.0595 46.2378 65.7198 45.6904 65.2378 45.3291C64.7667 44.9679 64.1805 44.7872 63.4793 44.7872C62.57 44.7872 61.7865 45.0882 61.1292 45.6904C60.4827 46.2925 60.0336 47.1136 59.7815 48.1537C59.6501 48.6901 59.5843 49.9162 59.5843 51.8321V59.0084H55.1307V34.2445ZM82.9014 41.1416H87.3716V42.9645C88.3904 42.1105 89.3108 41.5193 90.1325 41.1908C90.9652 40.8515 91.8143 40.6818 92.6799 40.6818C94.4548 40.6818 95.9612 41.3003 97.1992 42.5375C98.2401 43.5884 98.7606 45.1431 98.7606 47.2012V59.0084H94.3232V51.1753C94.3232 49.0405 94.2246 47.6227 94.0274 46.922C93.8412 46.2214 93.507 45.6904 93.0249 45.3291C92.5538 44.957 91.9677 44.7707 91.2665 44.7707C90.3571 44.7707 89.5738 45.0773 88.9163 45.6904C88.27 46.2925 87.8207 47.1301 87.5688 48.2029C87.4373 48.7613 87.3716 49.971 87.3716 51.8321V59.0084H82.9014V41.1416ZM111.231 34.5566H115.701V41.1416H118.363V45.0007H115.701V59.0084H111.231V45.0007H108.93V41.1416H111.231V34.5566ZM141.565 41.1416H146.035V59.0084H141.565V57.1199C140.688 57.9519 139.807 58.5541 138.92 58.9263C138.043 59.2875 137.09 59.4682 136.06 59.4682C133.748 59.4682 131.748 58.576 130.061 56.7914C128.374 54.996 127.531 52.7682 127.531 50.1078C127.531 47.349 128.346 45.0882 129.979 43.3257C131.612 41.5632 133.594 40.6818 135.929 40.6818C137.002 40.6818 138.01 40.8843 138.952 41.2894C139.894 41.6944 140.766 42.3021 141.565 43.1122V41.1416ZM136.849 44.8201C135.458 44.8201 134.301 45.3127 133.381 46.298C132.461 47.2723 132.001 48.5259 132.001 50.0586C132.001 51.6022 132.466 52.8722 133.397 53.8684C134.34 54.8647 135.495 55.3628 136.865 55.3628C138.279 55.3628 139.451 54.8757 140.382 53.9012C141.313 52.9159 141.779 51.6296 141.779 50.0422C141.779 48.4875 141.313 47.2286 140.382 46.2652C139.451 45.3017 138.273 44.8201 136.849 44.8201ZM157.092 41.1416H160.938V43.3913C161.354 42.5046 161.908 41.8313 162.598 41.3715C163.289 40.9117 164.044 40.6818 164.866 40.6818C165.447 40.6818 166.055 40.8351 166.691 41.1416L165.293 45.0007C164.767 44.738 164.335 44.6066 163.994 44.6066C163.305 44.6066 162.719 45.0336 162.237 45.8874C161.766 46.7414 161.53 48.4164 161.53 50.9125L161.546 51.7828V59.0084H157.092V41.1416ZM178.257 33.7847C179.046 33.7847 179.72 34.0693 180.278 34.6387C180.848 35.2079 181.132 35.8976 181.132 36.7078C181.132 37.5069 180.853 38.1912 180.295 38.7605C179.736 39.3188 179.068 39.5979 178.29 39.5979C177.49 39.5979 176.806 39.3133 176.236 38.7441C175.676 38.1637 175.397 37.4631 175.397 36.6421C175.397 35.8539 175.676 35.1805 176.236 34.6222C176.794 34.0638 177.467 33.7847 178.257 33.7847ZM176.005 41.1416H180.508V59.0084H176.005V41.1416ZM190.02 41.1416H191.615C191.626 38.7988 191.663 37.4139 191.73 36.9869C191.85 36.0016 192.261 35.2243 192.962 34.6551C193.674 34.0748 194.676 33.7847 195.969 33.7847C196.902 33.7847 197.952 33.9982 199.125 34.4252V37.8409C198.478 37.6548 197.947 37.5617 197.531 37.5617C197.005 37.5617 196.621 37.6711 196.38 37.8901C196.205 38.0544 196.117 38.3937 196.117 38.9083L196.101 41.1416H198.945V44.9515H196.101V59.0084H191.615V44.9515H190.02V41.1416Z" fill="white"/>
<path d="M217.785 28.9342H213.298C213.419 26.3287 214.235 24.2814 215.747 22.7925C217.269 21.2926 219.22 20.5428 221.598 20.5428C223.066 20.5428 224.359 20.8548 225.476 21.4787C226.605 22.0918 227.503 22.9841 228.172 24.1556C228.85 25.316 229.19 26.4983 229.19 27.7026C229.19 29.1368 228.779 30.6803 227.958 32.3335C227.147 33.9866 225.656 35.9408 223.487 38.196L220.776 41.0534H229.387V45.3066H212.641V43.1061L220.119 35.4864C221.927 33.6582 223.126 32.1911 223.718 31.0854C224.32 29.9687 224.622 28.9616 224.622 28.0639C224.622 27.1333 224.309 26.3669 223.684 25.7648C223.071 25.1518 222.277 24.8453 221.302 24.8453C220.316 24.8453 219.495 25.212 218.836 25.9455C218.179 26.6789 217.829 27.6752 217.785 28.9342ZM249.5 20.5428H254.102V36.094H256.255V40.3473H254.102V45.3066H249.598V40.3473H239.047V36.094L249.5 20.5428ZM249.598 36.094V27.9982L244.077 36.094H249.598Z" fill="white"/>
<path d="M218.936 66.3869C288.971 76.64 277.535 -9.35521 216.852 7.85024L216.683 5.36467C283.333 -15.9889 291.3 83.3496 219.062 68.2511L218.936 66.3869Z" fill="white"/>
</svg>
