<svg width="20" height="20" viewBox="0 0 20 20" fill="none" xmlns="http://www.w3.org/2000/svg">
<path d="M18.3944 0.650023C18.9511 0.961797 19.3612 1.48191 19.5345 2.09598C19.7077 2.71005 19.63 3.3678 19.3184 3.92459L11.4053 18.0555C11.2049 18.4134 10.9269 18.7221 10.5918 18.9587C10.2566 19.1953 9.87277 19.3539 9.46835 19.4229C9.06393 19.492 8.64919 19.4696 8.25453 19.3576C7.85987 19.2455 7.49528 19.0465 7.18749 18.7753L1.19043 13.4925C0.71161 13.0706 0.420016 12.4757 0.379789 11.8388C0.339563 11.2019 0.553999 10.5751 0.975926 10.0963C1.39785 9.61746 1.99271 9.32586 2.62963 9.28564C3.26655 9.24541 3.89336 9.45985 4.37218 9.88177L8.45318 13.4774L15.1192 1.57402C15.2736 1.29829 15.4807 1.05566 15.7289 0.859994C15.977 0.664329 16.2613 0.519459 16.5654 0.433656C16.8696 0.347854 17.1876 0.3228 17.5014 0.359924C17.8153 0.397048 18.1187 0.495624 18.3944 0.650023Z" fill="white"/>
</svg>
