<svg width="65" height="57" viewBox="0 0 65 57" fill="none" xmlns="http://www.w3.org/2000/svg">
<path d="M53.8522 41.9876L51.9441 40.0957V40.0961C51.2691 39.4276 50.3543 39.052 49.4001 39.052C48.4462 39.052 47.5313 39.4276 46.8564 40.0961L42.908 44.0224H40.7842C40.5367 43.3281 40.0787 42.7265 39.4728 42.3007C38.8669 41.8744 38.1429 41.6449 37.4004 41.6425H30.6922L28.6403 39.6081C28.4169 39.3882 28.1152 39.2643 27.8002 39.2631H18.2003C17.9652 39.2651 17.7354 39.3352 17.5402 39.4655L15.6683 40.6554V40.655C15.4517 39.9097 14.9961 39.2544 14.3705 38.7882C13.7445 38.3225 12.9828 38.0715 12.2004 38.0731H7.40029C6.44566 38.0731 5.52994 38.4492 4.85458 39.1189C4.17958 39.7881 3.80029 40.696 3.80029 41.6425V53.5409C3.80029 54.4875 4.17958 55.3954 4.85458 56.065C5.52998 56.7343 6.44568 57.1104 7.40029 57.1104H12.2004C12.9429 57.1084 13.667 56.8785 14.2728 56.4527C14.8787 56.0264 15.3368 55.4253 15.5842 54.7309H42.2006C42.5196 54.7325 42.8261 54.6086 43.0528 54.3859L53.8528 43.6776C54.0798 43.4541 54.2075 43.1498 54.2075 42.8327C54.2075 42.5156 54.0798 42.2112 53.8528 41.9877L53.8522 41.9876ZM12.2002 54.7304H7.40009C6.73754 54.7304 6.19995 54.1974 6.19995 53.5405V41.6421C6.19995 40.9851 6.73754 40.4525 7.40009 40.4525H12.2002C12.5184 40.4525 12.8234 40.5776 13.0488 40.8007C13.2738 41.0242 13.4 41.3266 13.4 41.6421V53.5405C13.4 53.856 13.2738 54.1587 13.0488 54.3818C12.8234 54.6049 12.5184 54.7304 12.2002 54.7304V54.7304ZM41.7079 52.3509L15.8002 52.3505V43.4748L18.5601 41.6423H27.2962L29.3481 43.6767V43.6771C29.5747 43.8998 29.8812 44.0237 30.2002 44.0221H37.4002C38.0628 44.0221 38.6 44.5547 38.6 45.2117C38.6 45.869 38.0628 46.4016 37.4002 46.4016H30.2002C29.5373 46.4016 29.0001 46.9342 29.0001 47.5915C29.0001 48.2485 29.5373 48.7811 30.2002 48.7811H37.4002C38.1428 48.7791 38.8668 48.5492 39.4726 48.1234C40.0785 47.6971 40.5366 47.096 40.784 46.4016H43.4001C43.7191 46.4036 44.0257 46.2793 44.2523 46.0566L48.5603 41.7852C49.0284 41.3239 49.7841 41.3239 50.2522 41.7852L51.3081 42.8322L41.7079 52.3509Z" fill="white"/>
<path d="M28.1473 35.3373C28.3731 35.5663 28.6824 35.6954 29.0055 35.6954C29.3285 35.6954 29.6375 35.5663 29.8633 35.3373L44.7673 20.2264C46.9642 17.98 48.1929 14.9734 48.1929 11.8443C48.1929 8.71513 46.9643 5.70856 44.7673 3.46218C42.5828 1.23884 39.5818 -0.0104599 36.4511 -5.76253e-05C33.723 -0.00324461 31.0825 0.954048 28.9992 2.70087C26.7572 0.832535 23.8848 -0.125191 20.9595 0.020645C18.0344 0.166053 15.2734 1.40415 13.2311 3.48604C11.0342 5.73243 9.80542 8.739 9.80542 11.8682C9.80542 14.9973 11.034 18.0039 13.2311 20.2503L28.1473 35.3373ZM14.9476 5.15224C16.6789 3.38151 19.0602 2.38197 21.5477 2.38197C24.0352 2.38197 26.4162 3.38149 28.1475 5.15224C28.3733 5.38131 28.6826 5.51038 29.0057 5.51038C29.3287 5.51038 29.6377 5.38131 29.8635 5.15224C31.5948 3.38151 33.9761 2.38197 36.4636 2.38197C38.9511 2.38197 41.3325 3.38149 43.0638 5.15224C44.824 6.95245 45.8084 9.3614 45.8084 11.8688C45.8084 14.3761 44.824 16.7851 43.0638 18.5853L29.0001 32.8028L14.9478 18.5251C13.2053 16.7281 12.2321 14.3315 12.2321 11.8385C12.2321 9.34549 13.2053 6.94929 14.9478 5.15184L14.9476 5.15224Z" fill="white"/>
<path d="M23.0002 17.8471H27.8003V22.6064H27.7999C27.7999 23.2634 28.3375 23.796 29 23.796C29.6626 23.796 30.2002 23.2634 30.2002 22.6064V17.8471H35.0003H34.9999C35.6629 17.8471 36.2 17.3145 36.2 16.6571C36.2 16.0002 35.6629 15.4676 34.9999 15.4676H30.2002V10.7083C30.2002 10.0513 29.6626 9.51831 29 9.51831C28.3375 9.51831 27.7999 10.0513 27.7999 10.7083V15.4676H23.0002C22.3372 15.4676 21.8 16.0002 21.8 16.6571C21.8 17.3145 22.3372 17.8471 23.0002 17.8471H23.0002Z" fill="white"/>
</svg>
