<svg width="87" height="67" viewBox="0 0 87 67" fill="none" xmlns="http://www.w3.org/2000/svg">
<path d="M43.4718 45.065C45.6543 43.4864 46.988 41.0578 46.988 38.1436C46.988 33.4078 43.2293 29.6436 38.5005 29.6436C33.7718 29.6436 30.013 33.4078 30.013 38.1436C30.013 40.9364 31.468 43.4864 33.5293 45.065C27.2243 47.1293 22.738 53.0793 22.738 60C22.738 60.7286 23.223 61.2143 23.9505 61.2143C24.678 61.2143 25.163 60.7286 25.163 60C25.163 52.5929 31.1043 46.6429 38.5005 46.6429C45.8968 46.6429 51.838 52.5929 51.838 60C51.838 60.7286 52.323 61.2143 53.0505 61.2143C53.778 61.2143 54.263 60.7286 54.263 60C54.263 53.0786 49.7768 47.1286 43.4718 45.065ZM32.438 38.1436C32.438 34.7436 35.1055 32.0721 38.5005 32.0721C41.8955 32.0721 44.563 34.7436 44.563 38.1436C44.563 41.5436 41.8955 44.215 38.5005 44.215C35.1055 44.215 32.438 41.5436 32.438 38.1436Z" fill="white"/>
<path d="M30.0125 28.4286C30.0125 22.3571 25.1625 17.5 19.1 17.5C13.0375 17.5 8.1875 22.3571 8.1875 28.4286C8.1875 34.5 13.0375 39.3571 19.1 39.3571C25.1625 39.3571 30.0125 34.5 30.0125 28.4286ZM19.1 36.9286C14.3712 36.9286 10.6125 33.1643 10.6125 28.4286C10.6125 23.6929 14.3712 19.9286 19.1 19.9286C23.8287 19.9286 27.5875 23.6929 27.5875 28.4286C27.5875 33.1643 23.8287 36.9286 19.1 36.9286Z" fill="white"/>
<path d="M57.8998 17.5C51.8373 17.5 46.9873 22.3571 46.9873 28.4286C46.9873 34.5 51.8373 39.3571 57.8998 39.3571C63.9623 39.3571 68.8123 34.5 68.8123 28.4286C68.8123 22.3571 63.9623 17.5 57.8998 17.5ZM57.8998 36.9286C53.1711 36.9286 49.4123 33.1643 49.4123 28.4286C49.4123 23.6929 53.1711 19.9286 57.8998 19.9286C62.6286 19.9286 66.3873 23.6929 66.3873 28.4286C66.3873 33.1643 62.6286 36.9286 57.8998 36.9286Z" fill="white"/>
<path d="M27.5874 11.4286C27.5874 17.5 32.4374 22.3571 38.4999 22.3571C44.5624 22.3571 49.4124 17.5 49.4124 11.4286C49.4124 5.35714 44.5624 0.5 38.4999 0.5C32.4374 0.5 27.5874 5.35714 27.5874 11.4286ZM46.9874 11.4286C46.9874 16.1643 43.2287 19.9286 38.4999 19.9286C33.7712 19.9286 30.0124 16.1643 30.0124 11.4286C30.0124 6.69286 33.7712 2.92857 38.4999 2.92857C43.2287 2.92857 46.9874 6.69286 46.9874 11.4286Z" fill="white"/>
<path d="M25.4049 24.5428C23.9499 23.0857 21.5249 23.0857 20.0699 24.5428L19.0999 25.5142L18.1299 24.5428C16.6749 23.0857 14.2499 23.0857 12.7949 24.5428C11.3399 26 11.3399 28.4285 12.7949 29.8857L18.2511 35.35C18.4936 35.5928 18.8574 35.7142 19.0999 35.7142C19.3424 35.7142 19.7061 35.5928 19.9486 35.35L25.4049 29.8857C26.8599 28.4285 26.8599 26 25.4049 24.5428ZM23.7074 28.1857L19.0999 32.8L14.4924 28.1857C14.0074 27.7 14.0074 26.85 14.4924 26.2428C14.7349 26 15.0986 25.8785 15.4624 25.8785C15.8261 25.8785 16.1899 26 16.4324 26.2428L18.2511 28.0642C18.7361 28.55 19.4636 28.55 19.9486 28.0642L21.7674 26.2428C22.2524 25.7571 23.1011 25.7571 23.7074 26.2428C24.1924 26.7285 24.1924 27.7 23.7074 28.1857Z" fill="white"/>
<path d="M60.9319 25.3921V22.9636C60.9319 22.235 60.4469 21.7493 59.7194 21.7493H56.0819C55.3544 21.7493 54.8694 22.235 54.8694 22.9636V25.3921H52.4444C51.7169 25.3921 51.2319 25.8778 51.2319 26.6064V30.2493C51.2319 30.9778 51.7169 31.4636 52.4444 31.4636H54.8694V33.8921C54.8694 34.6207 55.3544 35.1064 56.0819 35.1064H59.7194C60.4469 35.1064 60.9319 34.6207 60.9319 33.8921V31.4636H63.3569C64.0844 31.4636 64.5694 30.9778 64.5694 30.2493V26.6064C64.5694 25.8778 64.0844 25.3921 63.3569 25.3921H60.9319ZM62.1444 29.035H59.7194C58.9919 29.035 58.5069 29.5207 58.5069 30.2493V32.6778H57.2944V30.2493C57.2944 29.5207 56.8094 29.035 56.0819 29.035H53.6569V27.8207H56.0819C56.8094 27.8207 57.2944 27.335 57.2944 26.6064V24.1778H58.5069V26.6064C58.5069 27.335 58.9919 27.8207 59.7194 27.8207H62.1444V29.035Z" fill="white"/>
<path d="M34.8623 9.60786C34.8623 11.3079 36.1961 12.6436 37.8936 12.6436H39.1061C39.4698 12.6436 39.7123 12.8864 39.7123 13.2507C39.7123 13.615 39.4698 13.8579 39.1061 13.8579H36.0748C35.3473 13.8579 34.8623 14.3436 34.8623 15.0721C34.8623 15.8007 35.3473 16.2864 36.0748 16.2864H39.1061C40.8036 16.2864 42.1373 14.9507 42.1373 13.2507C42.1373 11.5507 40.8036 10.215 39.1061 10.215H37.8936C37.5298 10.215 37.2873 9.97214 37.2873 9.60786C37.2873 9.24357 37.5298 9.00072 37.8936 9.00072H40.9248C41.6523 9.00072 42.1373 8.515 42.1373 7.78643C42.1373 7.05786 41.6523 6.57214 40.9248 6.57214H37.8936C36.1961 6.57214 34.8623 7.90786 34.8623 9.60786Z" fill="white"/>
</svg>
