<svg width="68" height="75" viewBox="0 0 68 75" fill="none" xmlns="http://www.w3.org/2000/svg">
<path d="M54.3699 51.6084C53.429 53.2429 52.4092 54.7993 51.3895 56.278C57.9773 57.7568 61.8987 60.325 61.8987 62.2706C61.8987 65.1499 53.1932 69.5078 40.0173 69.5078C26.8414 69.5078 18.1359 65.1499 18.1359 62.2706C18.1359 60.325 22.0573 57.8344 28.6451 56.278C27.6254 54.7993 26.6061 53.2429 25.6647 51.6084C18.1353 53.554 12.7244 57.0559 12.7244 62.27C12.7244 70.5191 26.4493 74.8772 40.0173 74.8772C53.5854 74.8772 67.3103 70.5192 67.3103 62.27C67.3103 57.0564 61.8986 53.554 54.3699 51.6084Z" fill="white"/>
<path d="M42.4488 60.0911C48.0175 51.9195 61.35 31.4522 61.35 22.1913C61.35 10.4401 51.7817 0.945572 40.0175 0.945572C28.2533 0.945572 18.6067 10.44 18.6067 22.1913C18.6067 31.4524 32.0182 51.9197 37.5863 60.0911C38.7625 61.7257 41.2724 61.7257 42.4487 60.0916L42.4488 60.0911ZM30.0572 22.1913C30.0572 16.7438 34.5279 12.3076 40.0177 12.3076C45.5075 12.3076 49.9782 16.7438 49.9782 22.1913C49.9782 27.6387 45.5075 31.9973 40.0177 31.9973C34.5279 31.9973 30.0572 27.5611 30.0572 22.1913Z" fill="white"/>
</svg>
