<svg width="65" height="57" viewBox="0 0 65 57" fill="none" xmlns="http://www.w3.org/2000/svg">
<path d="M53.8523 41.9876L51.9442 40.0957V40.0961C51.2692 39.4277 50.3544 39.052 49.4002 39.052C48.4463 39.052 47.5315 39.4277 46.8565 40.0961L42.9081 44.0225H40.7844C40.5369 43.3281 40.0788 42.7266 39.4729 42.3007C38.867 41.8745 38.143 41.645 37.4006 41.6426H30.6923L28.6404 39.6081C28.417 39.3882 28.1153 39.2643 27.8003 39.2631H18.2004C17.9654 39.2651 17.7356 39.3353 17.5403 39.4655L15.6684 40.6555V40.6551C15.4518 39.9097 14.9962 39.2544 14.3706 38.7883C13.7447 38.3226 12.9829 38.0716 12.2006 38.0732H7.40042C6.44578 38.0732 5.53006 38.4493 4.8547 39.1189C4.1797 39.7882 3.80042 40.6961 3.80042 41.6426V53.541C3.80042 54.4875 4.1797 55.3955 4.8547 56.0651C5.5301 56.7344 6.4458 57.1104 7.40042 57.1104H12.2006C12.9431 57.1084 13.6671 56.8786 14.2729 56.4527C14.8788 56.0265 15.3369 55.4253 15.5843 54.7309H42.2007C42.5197 54.7325 42.8263 54.6086 43.0529 54.3859L53.8529 43.6777C54.0799 43.4542 54.2077 43.1498 54.2077 42.8327C54.2077 42.5156 54.0799 42.2113 53.8529 41.9878L53.8523 41.9876ZM12.2003 54.7305H7.40021C6.73767 54.7305 6.20007 54.1974 6.20007 53.5405V41.6421C6.20007 40.9852 6.73767 40.4526 7.40021 40.4526H12.2003C12.5186 40.4526 12.8235 40.5777 13.0489 40.8008C13.2739 41.0243 13.4001 41.3266 13.4001 41.6421V53.5405C13.4001 53.856 13.2739 54.1588 13.0489 54.3819C12.8235 54.605 12.5186 54.7305 12.2003 54.7305V54.7305ZM41.708 52.351L15.8003 52.3506V43.4749L18.5602 41.6423H27.2963L29.3482 43.6768V43.6772C29.5748 43.8999 29.8813 44.0238 30.2004 44.0222H37.4004C38.0629 44.0222 38.6001 44.5548 38.6001 45.2117C38.6001 45.869 38.0629 46.4017 37.4004 46.4017H30.2004C29.5374 46.4017 29.0002 46.9343 29.0002 47.5916C29.0002 48.2485 29.5374 48.7811 30.2004 48.7811H37.4004C38.1429 48.7791 38.8669 48.5493 39.4727 48.1234C40.0786 47.6972 40.5367 47.096 40.7842 46.4016H43.4002C43.7193 46.4036 44.0258 46.2793 44.2524 46.0566L48.5604 41.7853C49.0285 41.324 49.7842 41.324 50.2523 41.7853L51.3082 42.8322L41.708 52.351Z" fill="white"/>
<path d="M28.1474 35.3373C28.3732 35.5663 28.6826 35.6954 29.0056 35.6954C29.3286 35.6954 29.6376 35.5663 29.8634 35.3373L44.7674 20.2264C46.9643 17.98 48.1931 14.9734 48.1931 11.8443C48.1931 8.71513 46.9644 5.70856 44.7674 3.46218C42.5829 1.23884 39.582 -0.0104599 36.4512 -5.76253e-05C33.7231 -0.00324461 31.0826 0.954048 28.9993 2.70087C26.7573 0.832535 23.8849 -0.125191 20.9596 0.020645C18.0345 0.166053 15.2735 1.40415 13.2312 3.48604C11.0343 5.73243 9.80554 8.739 9.80554 11.8682C9.80554 14.9973 11.0342 18.0039 13.2312 20.2503L28.1474 35.3373ZM14.9477 5.15224C16.679 3.38151 19.0604 2.38197 21.5479 2.38197C24.0354 2.38197 26.4163 3.38149 28.1476 5.15224C28.3734 5.38131 28.6828 5.51038 29.0058 5.51038C29.3288 5.51038 29.6378 5.38131 29.8636 5.15224C31.5949 3.38151 33.9763 2.38197 36.4637 2.38197C38.9512 2.38197 41.3326 3.38149 43.0639 5.15224C44.8241 6.95245 45.8085 9.3614 45.8085 11.8688C45.8085 14.3761 44.8242 16.7851 43.0639 18.5853L29.0002 32.8028L14.9479 18.5251C13.2054 16.7281 12.2323 14.3315 12.2323 11.8385C12.2323 9.34549 13.2054 6.94929 14.9479 5.15184L14.9477 5.15224Z" fill="white"/>
<path d="M23.0004 17.8471H27.8005V22.6064H27.8001C27.8001 23.2634 28.3377 23.796 29.0003 23.796C29.6628 23.796 30.2004 23.2634 30.2004 22.6064V17.8471H35.0006H35.0002C35.6631 17.8471 36.2003 17.3145 36.2003 16.6571C36.2003 16.0002 35.6631 15.4676 35.0002 15.4676H30.2004V10.7083C30.2004 10.0513 29.6628 9.51831 29.0003 9.51831C28.3377 9.51831 27.8002 10.0513 27.8002 10.7083V15.4676H23.0004C22.3375 15.4676 21.8003 16.0002 21.8003 16.6571C21.8003 17.3145 22.3375 17.8471 23.0004 17.8471H23.0004Z" fill="white"/>
</svg>
