<svg width="87" height="67" viewBox="0 0 87 67" fill="none" xmlns="http://www.w3.org/2000/svg">
<path d="M43.4719 45.065C45.6544 43.4864 46.9882 41.0578 46.9882 38.1436C46.9882 33.4078 43.2294 29.6436 38.5007 29.6436C33.7719 29.6436 30.0132 33.4078 30.0132 38.1436C30.0132 40.9364 31.4682 43.4864 33.5294 45.065C27.2244 47.1293 22.7382 53.0793 22.7382 60C22.7382 60.7286 23.2232 61.2143 23.9507 61.2143C24.6782 61.2143 25.1632 60.7286 25.1632 60C25.1632 52.5929 31.1044 46.6429 38.5007 46.6429C45.8969 46.6429 51.8382 52.5929 51.8382 60C51.8382 60.7286 52.3232 61.2143 53.0507 61.2143C53.7782 61.2143 54.2632 60.7286 54.2632 60C54.2632 53.0786 49.7769 47.1286 43.4719 45.065ZM32.4382 38.1436C32.4382 34.7436 35.1057 32.0721 38.5007 32.0721C41.8957 32.0721 44.5632 34.7436 44.5632 38.1436C44.5632 41.5436 41.8957 44.215 38.5007 44.215C35.1057 44.215 32.4382 41.5436 32.4382 38.1436Z" fill="white"/>
<path d="M30.0125 28.4286C30.0125 22.3571 25.1625 17.5 19.1 17.5C13.0375 17.5 8.1875 22.3571 8.1875 28.4286C8.1875 34.5 13.0375 39.3571 19.1 39.3571C25.1625 39.3571 30.0125 34.5 30.0125 28.4286ZM19.1 36.9286C14.3712 36.9286 10.6125 33.1643 10.6125 28.4286C10.6125 23.6929 14.3712 19.9286 19.1 19.9286C23.8287 19.9286 27.5875 23.6929 27.5875 28.4286C27.5875 33.1643 23.8287 36.9286 19.1 36.9286Z" fill="white"/>
<path d="M57.9 17.5C51.8375 17.5 46.9875 22.3571 46.9875 28.4286C46.9875 34.5 51.8375 39.3571 57.9 39.3571C63.9625 39.3571 68.8125 34.5 68.8125 28.4286C68.8125 22.3571 63.9625 17.5 57.9 17.5ZM57.9 36.9286C53.1713 36.9286 49.4125 33.1643 49.4125 28.4286C49.4125 23.6929 53.1713 19.9286 57.9 19.9286C62.6288 19.9286 66.3875 23.6929 66.3875 28.4286C66.3875 33.1643 62.6288 36.9286 57.9 36.9286Z" fill="white"/>
<path d="M27.5875 11.4286C27.5875 17.5 32.4375 22.3571 38.5 22.3571C44.5625 22.3571 49.4125 17.5 49.4125 11.4286C49.4125 5.35714 44.5625 0.5 38.5 0.5C32.4375 0.5 27.5875 5.35714 27.5875 11.4286ZM46.9875 11.4286C46.9875 16.1643 43.2288 19.9286 38.5 19.9286C33.7713 19.9286 30.0125 16.1643 30.0125 11.4286C30.0125 6.69286 33.7713 2.92857 38.5 2.92857C43.2288 2.92857 46.9875 6.69286 46.9875 11.4286Z" fill="white"/>
<path d="M25.405 24.5429C23.95 23.0857 21.525 23.0857 20.07 24.5429L19.1 25.5143L18.13 24.5429C16.675 23.0857 14.25 23.0857 12.795 24.5429C11.34 26 11.34 28.4286 12.795 29.8857L18.2512 35.35C18.4937 35.5929 18.8575 35.7143 19.1 35.7143C19.3425 35.7143 19.7062 35.5929 19.9487 35.35L25.405 29.8857C26.86 28.4286 26.86 26 25.405 24.5429ZM23.7075 28.1857L19.1 32.8L14.4925 28.1857C14.0075 27.7 14.0075 26.85 14.4925 26.2429C14.735 26 15.0987 25.8786 15.4625 25.8786C15.8262 25.8786 16.19 26 16.4325 26.2429L18.2512 28.0643C18.7362 28.55 19.4637 28.55 19.9487 28.0643L21.7675 26.2429C22.2525 25.7572 23.1012 25.7572 23.7075 26.2429C24.1925 26.7286 24.1925 27.7 23.7075 28.1857Z" fill="white"/>
<path d="M60.9319 25.3922V22.9636C60.9319 22.235 60.4469 21.7493 59.7194 21.7493H56.0819C55.3544 21.7493 54.8694 22.235 54.8694 22.9636V25.3922H52.4444C51.7169 25.3922 51.2319 25.8779 51.2319 26.6065V30.2493C51.2319 30.9779 51.7169 31.4636 52.4444 31.4636H54.8694V33.8922C54.8694 34.6208 55.3544 35.1065 56.0819 35.1065H59.7194C60.4469 35.1065 60.9319 34.6208 60.9319 33.8922V31.4636H63.3569C64.0844 31.4636 64.5694 30.9779 64.5694 30.2493V26.6065C64.5694 25.8779 64.0844 25.3922 63.3569 25.3922H60.9319ZM62.1444 29.035H59.7194C58.9919 29.035 58.5069 29.5208 58.5069 30.2493V32.6779H57.2944V30.2493C57.2944 29.5208 56.8094 29.035 56.0819 29.035H53.6569V27.8208H56.0819C56.8094 27.8208 57.2944 27.335 57.2944 26.6065V24.1779H58.5069V26.6065C58.5069 27.335 58.9919 27.8208 59.7194 27.8208H62.1444V29.035Z" fill="white"/>
<path d="M34.8625 9.60786C34.8625 11.3079 36.1963 12.6436 37.8938 12.6436H39.1063C39.47 12.6436 39.7125 12.8864 39.7125 13.2507C39.7125 13.615 39.47 13.8579 39.1063 13.8579H36.075C35.3475 13.8579 34.8625 14.3436 34.8625 15.0721C34.8625 15.8007 35.3475 16.2864 36.075 16.2864H39.1063C40.8038 16.2864 42.1375 14.9507 42.1375 13.2507C42.1375 11.5507 40.8038 10.215 39.1063 10.215H37.8938C37.53 10.215 37.2875 9.97214 37.2875 9.60786C37.2875 9.24357 37.53 9.00072 37.8938 9.00072H40.925C41.6525 9.00072 42.1375 8.515 42.1375 7.78643C42.1375 7.05786 41.6525 6.57214 40.925 6.57214H37.8938C36.1963 6.57214 34.8625 7.90786 34.8625 9.60786Z" fill="white"/>
</svg>
