<svg width="47" height="60" viewBox="0 0 47 60" fill="none" xmlns="http://www.w3.org/2000/svg">
<path d="M1.71275 0.554199H41.7693C42.4497 0.554199 43.002 1.11192 43.002 1.79898V54.8412C43.002 55.5283 42.4497 56.086 41.7693 56.086H1.71275C1.03231 56.086 0.47998 55.5283 0.47998 54.8412V1.79898C0.47998 1.11191 1.03232 0.554199 1.71275 0.554199ZM44.0823 5.38098C44.0823 4.69391 44.6346 4.1362 45.3151 4.1362C45.9955 4.1362 46.5478 4.69392 46.5478 5.38098V58.4232C46.5478 59.1103 45.9955 59.668 45.3151 59.668H5.25965C4.57921 59.668 4.02688 59.1103 4.02688 58.4232C4.02688 57.7361 4.57922 57.1784 5.25965 57.1784H44.0815L44.0823 5.38098ZM9.4056 10.1822C8.72516 10.1822 8.17283 9.62448 8.17283 8.93742C8.17283 8.25037 8.72517 7.69264 9.4056 7.69264H34.0764C34.7569 7.69264 35.3092 8.25037 35.3092 8.93742C35.3092 9.62448 34.7568 10.1822 34.0764 10.1822H9.4056ZM9.4056 48.9478C8.72516 48.9478 8.17283 48.39 8.17283 47.703C8.17283 47.0159 8.72517 46.4582 9.4056 46.4582H34.0764C34.7569 46.4582 35.3092 47.0159 35.3092 47.703C35.3092 48.39 34.7568 48.9478 34.0764 48.9478H9.4056ZM9.4056 41.1943C8.72516 41.1943 8.17283 40.6366 8.17283 39.9495C8.17283 39.2625 8.72517 38.7048 9.4056 38.7048H34.0764C34.7569 38.7048 35.3092 39.2625 35.3092 39.9495C35.3092 40.6366 34.7568 41.1943 34.0764 41.1943H9.4056ZM9.4056 33.4418C8.72516 33.4418 8.17283 32.884 8.17283 32.197C8.17283 31.5099 8.72517 30.9522 9.4056 30.9522H34.0764C34.7569 30.9522 35.3092 31.5099 35.3092 32.197C35.3092 32.884 34.7568 33.4418 34.0764 33.4418H9.4056ZM9.4056 25.6879C8.72516 25.6879 8.17283 25.1301 8.17283 24.4431C8.17283 23.756 8.72517 23.1983 9.4056 23.1983H34.0764C34.7569 23.1983 35.3092 23.756 35.3092 24.4431C35.3092 25.1302 34.7568 25.6879 34.0764 25.6879H9.4056ZM9.4056 17.9344C8.72516 17.9344 8.17283 17.3767 8.17283 16.6896C8.17283 16.0026 8.72517 15.4449 9.4056 15.4449H34.0764C34.7569 15.4449 35.3092 16.0026 35.3092 16.6896C35.3092 17.3767 34.7568 17.9344 34.0764 17.9344H9.4056ZM40.5357 3.04331H2.94519V53.5944H40.5357V3.04331Z" fill="white"/>
</svg>
